<?xml version="1.0" encoding="UTF-8" standalone="no"?>
<!-- Created with Inkscape (http://www.inkscape.org/) -->

<svg
   width="100%"
   viewBox="0 50 1920 1080"
   style="background-color:#f7ffc2;"
   preserveAspectRatio="xMidYMid meet"
   version="1.1"
   id="svg5"
   inkscape:version="1.2.2 (b0a8486541, 2022-12-01)"
   sodipodi:docname="drawing.svg"
   xmlns:inkscape="http://www.inkscape.org/namespaces/inkscape"
   xmlns:sodipodi="http://sodipodi.sourceforge.net/DTD/sodipodi-0.dtd"
   xmlns="http://www.w3.org/2000/svg"
   xmlns:svg="http://www.w3.org/2000/svg">
  <sodipodi:namedview
     id="namedview7"
     pagecolor="#f7ffc2"
     bordercolor="#000000"
     borderopacity="0.25"
     inkscape:showpageshadow="2"
     inkscape:pageopacity="1"
     inkscape:pagecheckerboard="0"
     inkscape:deskcolor="#d1d1d1"
     inkscape:document-units="px"
     showgrid="false"
     inkscape:zoom="0.43580906"
     inkscape:cx="1223.0127"
     inkscape:cy="540.37427"
     inkscape:window-width="1366"
     inkscape:window-height="708"
     inkscape:window-x="0"
     inkscape:window-y="0"
     inkscape:window-maximized="1"
     inkscape:current-layer="svg5" />
  <defs
     id="defs2" />
  <g
     inkscape:label="Layer 1"
     inkscape:groupmode="layer"
     id="layer1" />
  <g
     id="g987"
     transform="translate(-14.416356,-13.76677)">
    <path
       sodipodi:type="star"
       style="fill:#eef4d7"
       id="path543"
       inkscape:flatsided="true"
       sodipodi:sides="5"
       sodipodi:cx="880.27679"
       sodipodi:cy="632.29852"
       sodipodi:r1="62.406998"
       sodipodi:r2="50.488323"
       sodipodi:arg1="0.14162206"
       sodipodi:arg2="0.76994059"
       inkscape:rounded="0.18"
       inkscape:randomized="0"
       d="m 942.05899,641.10722 c -1.86394,13.07328 -38.05859,50.40455 -51.06801,52.6717 -13.00942,2.26715 -59.69834,-20.62001 -65.87466,-32.29211 -6.17631,-11.67211 1.163,-63.14843 10.35524,-72.62934 9.19225,-9.4809 60.41711,-18.40786 72.27455,-12.59528 11.85744,5.81259 36.17683,51.77175 34.31288,64.84503 z"
       inkscape:transform-center-x="-2.2206173"
       inkscape:transform-center-y="1.8768221"
       transform="translate(91.420778,56.426212)" />
    <path
       sodipodi:type="star"
       style="fill:#dde9af"
       id="path433"
       inkscape:flatsided="true"
       sodipodi:sides="5"
       sodipodi:cx="1164.4321"
       sodipodi:cy="459.47971"
       sodipodi:r1="86.320854"
       sodipodi:r2="69.835037"
       sodipodi:arg1="0.81077877"
       sodipodi:arg2="1.4390973"
       inkscape:rounded="0.18"
       inkscape:randomized="0"
       d="m 1223.9015,522.04713 c -13.2394,12.58388 -84.5383,22.02854 -100.5975,13.32572 -16.0592,-8.70282 -47.0741,-73.5935 -43.7598,-91.55602 3.3143,-17.96252 55.4448,-67.51183 73.5524,-69.91046 18.1075,-2.39863 81.341,31.8689 89.2177,48.34898 7.8768,16.48009 -5.1734,87.20789 -18.4128,99.79178 z"
       inkscape:transform-center-x="0.024834366"
       inkscape:transform-center-y="4.2166553"
       transform="rotate(43.619421,924.3023,441.22299)" />
    <path
       sodipodi:type="star"
       style="fill:#cdde87"
       id="path111"
       inkscape:flatsided="true"
       sodipodi:sides="5"
       sodipodi:cx="343.7746"
       sodipodi:cy="262.44766"
       sodipodi:r1="158.87994"
       sodipodi:r2="128.53658"
       sodipodi:arg1="1.055306"
       sodipodi:arg2="1.6836245"
       inkscape:rounded="0.18"
       inkscape:randomized="0"
       d="m 422.0963,400.68133 c -29.25062,16.57309 -160.78613,1.66887 -185.587,-21.02875 -24.80088,-22.69763 -51.27283,-152.40098 -37.35,-183.00197 13.92283,-30.60098 129.09777,-95.85785 162.50343,-92.07268 33.40566,3.78518 131.05964,93.15757 137.78264,126.09792 6.723,32.94036 -48.09846,153.4324 -77.34907,170.00548 z"
       inkscape:transform-center-x="-5.5277333"
       inkscape:transform-center-y="-9.8180302"
       transform="translate(585.00739,252.75156)" />
    <circle
       style="fill:#ffffff"
       id="path883"
       cx="849.00049"
       cy="687.82172"
       r="19.491196" />
    <ellipse
       style="fill:#ffffff;stroke-width:0.607942"
       id="path883-3"
       cx="875.36951"
       cy="719.78363"
       rx="12.48493"
       ry="11.24643" />
    <circle
       style="fill:#ffffff;stroke-width:0.466032"
       id="path883-6"
       cx="834.96301"
       cy="721.05426"
       r="9.083518" />
    <circle
       style="fill:#ffffff"
       id="path883-7"
       cx="1128.5072"
       cy="497.04169"
       r="19.491196" />
    <circle
       style="fill:#ffffff;stroke-width:0.601355"
       id="path883-7-5"
       cx="1102.442"
       cy="470.65988"
       r="11.721129" />
    <circle
       style="fill:#ffffff;stroke-width:0.388098"
       id="path883-7-5-3"
       cx="1140.1473"
       cy="527.67035"
       r="7.5644979" />
  </g>
</svg>
